<svg width="512" height="512" viewBox="0 0 512 512" fill="none" xmlns="http://www.w3.org/2000/svg">
  <!-- Background Circle -->
  <circle cx="256" cy="256" r="256" fill="#F5E6D3"/>
  
  <!-- Brain Shape -->
  <path d="M256 136C176 136 112 200 112 280C112 360 176 424 256 424C336 424 400 360 400 280C400 200 336 136 256 136Z" fill="#A17C6B"/>
  
  <!-- Brain Details -->
  <path d="M256 166C196 166 146 216 146 276C146 336 196 386 256 386C316 386 366 336 366 276C366 216 316 166 256 166Z" fill="#8E6C88"/>
  
  <!-- Neural Network Lines -->
  <path d="M196 246L256 306M256 306L316 246" stroke="#F5E6D3" stroke-width="4"/>
  <path d="M196 306L256 246M256 246L316 306" stroke="#F5E6D3" stroke-width="4"/>
  
  <!-- Binary Elements -->
  <text x="226" y="286" fill="#F5E6D3" font-family="monospace" font-size="24">1</text>
  <text x="276" y="286" fill="#F5E6D3" font-family="monospace" font-size="24">0</text>
</svg>